<svg id="Layer_1" data-name="Layer 1" xmlns="http://www.w3.org/2000/svg" viewBox="0 0 415.963 98.044"><defs><style>.cls-1{fill: #ffffff;}</style></defs><title>logo-full</title><path class="cls-1" d="M14.528,97.114a1.357,1.357,0,0,0,.291.439.992.992,0,0,0,.741.226h.979a.589.589,0,0,0,.582-.585,1,1,0,0,0-.106-.372l-6.456-16.77a2.34,2.34,0,0,0-.4-.585,1.023,1.023,0,0,0-.794-.292H7.78a1.02,1.02,0,0,0-.794.292,2.313,2.313,0,0,0-.4.585L.106,96.822A1,1,0,0,0,0,97.194a.563.563,0,0,0,.172.412.558.558,0,0,0,.41.173h.979a.992.992,0,0,0,.741-.226,1.357,1.357,0,0,0,.291-.439l1.376-3.535h9.183ZM8.574,81.7l3.652,9.488H4.9Z"/><path class="cls-1" d="M29.77,95.387V79.893a.724.724,0,0,0-.714-.718H27.971a.685.685,0,0,0-.5.213.692.692,0,0,0-.212.5V97.061a.692.692,0,0,0,.212.5.685.685,0,0,0,.5.213h10.77a.685.685,0,0,0,.5-.213.692.692,0,0,0,.212-.5V96.1a.724.724,0,0,0-.715-.717Z"/><path class="cls-1" d="M48.585,90.736a9.42,9.42,0,0,0,.53,2.87,6.348,6.348,0,0,0,3.731,3.867,8.738,8.738,0,0,0,3.308.571,8.908,8.908,0,0,0,3.215-.545,6.694,6.694,0,0,0,2.382-1.514,6.444,6.444,0,0,0,1.468-2.312,8.316,8.316,0,0,0,.5-2.937V88.211a.724.724,0,0,0-.714-.717H57.4a.724.724,0,0,0-.715.717v.957a.724.724,0,0,0,.715.717h3.81v.745a6.29,6.29,0,0,1-.384,2.338,3.978,3.978,0,0,1-1.071,1.555,4.18,4.18,0,0,1-1.615.864,7.169,7.169,0,0,1-1.984.265,6.248,6.248,0,0,1-2-.305,4.211,4.211,0,0,1-1.575-.93,4.508,4.508,0,0,1-1.058-1.582A6.128,6.128,0,0,1,51.1,90.6q-.052-1.2-.053-2.206t.053-2.206a5.663,5.663,0,0,1,.424-2.139,4.456,4.456,0,0,1,1.058-1.528,4.292,4.292,0,0,1,1.575-.917,6.248,6.248,0,0,1,2-.306,6.327,6.327,0,0,1,1.839.239,4.6,4.6,0,0,1,1.336.638,4.32,4.32,0,0,1,.966.957,8.131,8.131,0,0,1,.728,1.2q.132.292.767.292h1.085a.605.605,0,0,0,.424-.172.471.471,0,0,0,.159-.412,3.875,3.875,0,0,0-.49-1.608,5.7,5.7,0,0,0-1.376-1.675,7.851,7.851,0,0,0-2.276-1.315,8.678,8.678,0,0,0-3.162-.532,8.926,8.926,0,0,0-3.308.558A6.535,6.535,0,0,0,50.5,81.009a6.369,6.369,0,0,0-1.4,2.285,9.245,9.245,0,0,0-.516,2.764q-.078,2.34,0,4.678Z"/><path class="cls-1" d="M87.142,97.114a1.34,1.34,0,0,0,.291.439.992.992,0,0,0,.741.226h.979a.559.559,0,0,0,.41-.173.567.567,0,0,0,.172-.412,1.016,1.016,0,0,0-.106-.372l-6.457-16.77a2.313,2.313,0,0,0-.4-.585,1.02,1.02,0,0,0-.794-.292H80.394a1.018,1.018,0,0,0-.794.292,2.287,2.287,0,0,0-.4.585l-6.484,16.77a1.011,1.011,0,0,0-.1.372.589.589,0,0,0,.582.585h.979a.993.993,0,0,0,.741-.226,1.357,1.357,0,0,0,.291-.439l1.376-3.535h9.183ZM81.187,81.7l3.652,9.488h-7.33Z"/><path class="cls-1" d="M102.384,95.387V89.566h8.1a.684.684,0,0,0,.5-.212.692.692,0,0,0,.212-.5v-.957a.724.724,0,0,0-.714-.717h-8.1V81.567h8.68a.724.724,0,0,0,.714-.718v-.956a.724.724,0,0,0-.714-.718h-10.48a.726.726,0,0,0-.714.718V97.061a.726.726,0,0,0,.714.718h10.691a.685.685,0,0,0,.5-.213.692.692,0,0,0,.212-.5V96.1a.724.724,0,0,0-.715-.717Z"/><path class="cls-1" d="M150.585,83.361a6.506,6.506,0,0,0-1.574-2.272,6.852,6.852,0,0,0-2.395-1.422,9.016,9.016,0,0,0-3.03-.492h-6.06a.724.724,0,0,0-.714.718V97.061a.724.724,0,0,0,.714.718h6.219a8.679,8.679,0,0,0,2.99-.492,6.637,6.637,0,0,0,2.329-1.422,6.549,6.549,0,0,0,1.535-2.272,8.179,8.179,0,0,0,.582-3.017q.025-1.2.026-2.1t-.026-2.1A7.981,7.981,0,0,0,150.585,83.361Zm-1.905,4.226q.013.465.013.9c0,.292,0,.594-.013.9s-.013.66-.013,1.049a7.593,7.593,0,0,1-.278,1.848,4.205,4.205,0,0,1-.834,1.581,4.064,4.064,0,0,1-1.548,1.1,6.11,6.11,0,0,1-2.4.412h-4.286V81.567h4.154a6.21,6.21,0,0,1,2.408.412,4.176,4.176,0,0,1,2.475,2.684,6.825,6.825,0,0,1,.3,1.847Q148.667,87.122,148.68,87.587Z"/><path class="cls-1" d="M174.759,97.114a1.357,1.357,0,0,0,.291.439.992.992,0,0,0,.741.226h.979a.589.589,0,0,0,.583-.585,1.016,1.016,0,0,0-.106-.372l-6.457-16.77a2.34,2.34,0,0,0-.4-.585,1.021,1.021,0,0,0-.794-.292h-1.588a1.02,1.02,0,0,0-.794.292,2.313,2.313,0,0,0-.4.585l-6.483,16.77a1,1,0,0,0-.106.372.589.589,0,0,0,.582.585h.979a.992.992,0,0,0,.741-.226,1.361,1.361,0,0,0,.292-.439l1.376-3.535h9.182ZM168.805,81.7l3.652,9.488h-7.33Z"/><path class="cls-1" d="M184.63,79.175a.685.685,0,0,0-.5.213.692.692,0,0,0-.212.5v.956a.726.726,0,0,0,.715.718h4.948V97.061a.692.692,0,0,0,.212.5.685.685,0,0,0,.5.213h1.085a.724.724,0,0,0,.714-.718V81.567h4.949a.724.724,0,0,0,.714-.718v-.956a.724.724,0,0,0-.714-.718Z"/><path class="cls-1" d="M218.82,97.114a1.34,1.34,0,0,0,.291.439.992.992,0,0,0,.741.226h.979a.589.589,0,0,0,.582-.585,1.016,1.016,0,0,0-.106-.372l-6.457-16.77a2.313,2.313,0,0,0-.4-.585,1.02,1.02,0,0,0-.794-.292h-1.587a1.02,1.02,0,0,0-.794.292,2.287,2.287,0,0,0-.4.585L204.4,96.822a1.011,1.011,0,0,0-.1.372.589.589,0,0,0,.582.585h.979a.993.993,0,0,0,.741-.226,1.357,1.357,0,0,0,.291-.439l1.376-3.535h9.183ZM212.866,81.7l3.651,9.488h-7.33Z"/><path class="cls-1" d="M247.584,80.026a2.106,2.106,0,0,0-.436-.585,1.012,1.012,0,0,0-.728-.266h-1.006a.726.726,0,0,0-.714.718V97.061a.726.726,0,0,0,.714.718H246.5a.685.685,0,0,0,.5-.213.692.692,0,0,0,.212-.5v-12.6l4.128,8a2.4,2.4,0,0,0,.45.625.883.883,0,0,0,.635.226h1.006a.884.884,0,0,0,.635-.226,2.447,2.447,0,0,0,.45-.625l4.128-8v12.6a.724.724,0,0,0,.714.718h1.085a.685.685,0,0,0,.5-.213.692.692,0,0,0,.212-.5V79.893a.692.692,0,0,0-.212-.5.685.685,0,0,0-.5-.213h-1a1.008,1.008,0,0,0-.728.266,2.11,2.11,0,0,0-.437.585L252.93,90.417Z"/><path class="cls-1" d="M285.8,97.114a1.357,1.357,0,0,0,.291.439.992.992,0,0,0,.741.226h.979a.589.589,0,0,0,.583-.585,1.016,1.016,0,0,0-.106-.372l-6.457-16.77a2.34,2.34,0,0,0-.4-.585,1.021,1.021,0,0,0-.794-.292h-1.588a1.021,1.021,0,0,0-.794.292,2.34,2.34,0,0,0-.4.585l-6.483,16.77a1,1,0,0,0-.106.372.589.589,0,0,0,.582.585h.98a1,1,0,0,0,.741-.226,1.357,1.357,0,0,0,.291-.439l1.376-3.535h9.182ZM279.842,81.7l3.652,9.488h-7.33Z"/><path class="cls-1" d="M311.624,97.779a.724.724,0,0,0,.714-.718V79.893a.724.724,0,0,0-.714-.718h-1.085a.684.684,0,0,0-.5.213.692.692,0,0,0-.212.5V92.968l-8.6-13a3.218,3.218,0,0,0-.437-.544.842.842,0,0,0-.622-.253h-.926a.724.724,0,0,0-.714.718V97.061a.724.724,0,0,0,.714.718h1.085a.685.685,0,0,0,.5-.213.692.692,0,0,0,.212-.5V83.985l8.6,13a3.138,3.138,0,0,0,.437.545.838.838,0,0,0,.622.253Z"/><path class="cls-1" d="M336.975,97.114a1.34,1.34,0,0,0,.291.439.992.992,0,0,0,.741.226h.979a.589.589,0,0,0,.582-.585,1,1,0,0,0-.106-.372l-6.457-16.77a2.287,2.287,0,0,0-.4-.585,1.02,1.02,0,0,0-.794-.292h-1.587a1.02,1.02,0,0,0-.794.292,2.287,2.287,0,0,0-.4.585l-6.483,16.77a1,1,0,0,0-.106.372.589.589,0,0,0,.582.585h.979a.992.992,0,0,0,.741-.226,1.357,1.357,0,0,0,.291-.439l1.376-3.535H335.6ZM331.021,81.7l3.651,9.488h-7.33Z"/><path class="cls-1" d="M348.7,90.736a9.389,9.389,0,0,0,.529,2.87,6.348,6.348,0,0,0,3.731,3.867,8.738,8.738,0,0,0,3.308.571,8.9,8.9,0,0,0,3.215-.545,6.685,6.685,0,0,0,2.382-1.514,6.446,6.446,0,0,0,1.469-2.312,8.315,8.315,0,0,0,.5-2.937V88.211a.722.722,0,0,0-.714-.717h-5.61a.724.724,0,0,0-.715.717v.957a.692.692,0,0,0,.212.5.683.683,0,0,0,.5.212h3.81v.745a6.312,6.312,0,0,1-.383,2.338,3.98,3.98,0,0,1-1.072,1.555,4.183,4.183,0,0,1-1.614.864,7.182,7.182,0,0,1-1.985.265,6.252,6.252,0,0,1-2-.305,4.2,4.2,0,0,1-1.574-.93,4.51,4.51,0,0,1-1.059-1.582,6.108,6.108,0,0,1-.423-2.232q-.054-1.2-.053-2.206t.053-2.206a5.645,5.645,0,0,1,.423-2.139,4.458,4.458,0,0,1,1.059-1.528,4.28,4.28,0,0,1,1.574-.917,6.252,6.252,0,0,1,2-.306,6.322,6.322,0,0,1,1.839.239,4.623,4.623,0,0,1,1.337.638,4.315,4.315,0,0,1,.965.957,8.046,8.046,0,0,1,.728,1.2q.132.292.768.292h1.085a.6.6,0,0,0,.423-.172.471.471,0,0,0,.159-.412,3.86,3.86,0,0,0-.49-1.608,5.7,5.7,0,0,0-1.376-1.675,7.851,7.851,0,0,0-2.276-1.315,8.671,8.671,0,0,0-3.162-.532,8.926,8.926,0,0,0-3.308.558,6.535,6.535,0,0,0-2.342,1.542,6.353,6.353,0,0,0-1.4,2.285,9.183,9.183,0,0,0-.516,2.764q-.079,2.34,0,4.678Z"/><path class="cls-1" d="M377.41,95.387V89.566h8.1a.684.684,0,0,0,.5-.212.692.692,0,0,0,.212-.5v-.957a.724.724,0,0,0-.715-.717h-8.1V81.567h8.679a.726.726,0,0,0,.715-.718v-.956a.692.692,0,0,0-.212-.5.685.685,0,0,0-.5-.213H375.61a.724.724,0,0,0-.714.718V97.061a.724.724,0,0,0,.714.718H386.3a.726.726,0,0,0,.715-.718V96.1a.724.724,0,0,0-.715-.717Z"/><path class="cls-1" d="M398.685,79.175a.726.726,0,0,0-.714.718V97.061a.726.726,0,0,0,.714.718h1.085a.685.685,0,0,0,.5-.213.692.692,0,0,0,.212-.5V90.284h4.552l3.837,6.777a2.474,2.474,0,0,0,.357.452,1.028,1.028,0,0,0,.781.266h1.137a.589.589,0,0,0,.583-.585.66.66,0,0,0-.08-.292l-4-6.99a5.786,5.786,0,0,0,2.739-1.807,5.157,5.157,0,0,0,1.072-3.429,5.556,5.556,0,0,0-.516-2.5,4.775,4.775,0,0,0-1.389-1.7,5.94,5.94,0,0,0-2.025-.983,9.112,9.112,0,0,0-2.448-.319Zm1.8,2.392h4.472a5.257,5.257,0,0,1,2.951.7,2.689,2.689,0,0,1,1.045,2.405,2.831,2.831,0,0,1-1.045,2.459,4.965,4.965,0,0,1-2.951.757h-4.472Z"/><path class="cls-1" d="M31.376,62.9a19.573,19.573,0,0,0,8.248-1.639,17.875,17.875,0,0,0,5.954-4.3,18.619,18.619,0,0,0,3.616-5.98,19.073,19.073,0,0,0,1.235-6.688,15.167,15.167,0,0,0-2.293-8.637,19.251,19.251,0,0,0-5.028-5.271,9.41,9.41,0,0,0,1.632-1.329,16.109,16.109,0,0,0,2.028-2.437,14.22,14.22,0,0,0,1.721-3.543,14.739,14.739,0,0,0,.705-4.739,18.229,18.229,0,0,0-1.014-5.714,16.414,16.414,0,0,0-3.308-5.67,17.759,17.759,0,0,0-6.086-4.341A22.783,22.783,0,0,0,29.347.886H3.325A2.286,2.286,0,0,0,1.649,1.6a2.3,2.3,0,0,0-.7,1.683V60.505a2.3,2.3,0,0,0,.705,1.683,2.278,2.278,0,0,0,1.676.709Zm3.793-39.023q-2.116,1.728-6.7,1.728H12.852V11.959H28.465q4.586,0,6.7,1.728a6.191,6.191,0,0,1,2.117,5.094A6.187,6.187,0,0,1,35.169,23.874Zm-22.317,12.8H29.171q4.674,0,7.012,2.126a7.089,7.089,0,0,1,2.338,5.493,7.076,7.076,0,0,1-2.249,5.448q-2.25,2.082-7.1,2.082H12.852Z"/><path class="cls-1" d="M72.128,19.224a2.414,2.414,0,0,0-2.382-2.392h-6.7a2.414,2.414,0,0,0-2.382,2.392V60.505A2.416,2.416,0,0,0,63.042,62.9h6.7a2.416,2.416,0,0,0,2.382-2.392ZM62.6,0a2.284,2.284,0,0,0-1.676.709,2.3,2.3,0,0,0-.706,1.683V9.3A2.416,2.416,0,0,0,62.6,11.694h7.586A2.416,2.416,0,0,0,72.569,9.3V2.392A2.308,2.308,0,0,0,71.863.709,2.289,2.289,0,0,0,70.187,0Z"/><path class="cls-1" d="M82.844,27.728q-.045,2.038-.044,4.208t.044,4.208q.044,2.039.133,3.72a31.378,31.378,0,0,0,1.9,9.346,21.349,21.349,0,0,0,4.807,7.619,22.326,22.326,0,0,0,7.939,5.094,31,31,0,0,0,11.291,1.86,31.092,31.092,0,0,0,11.247-1.86,22.26,22.26,0,0,0,7.983-5.094,21.377,21.377,0,0,0,4.807-7.619,31.472,31.472,0,0,0,1.9-9.346q.086-1.681.132-3.72t.044-4.208q0-2.17-.044-4.208t-.132-3.721a30.367,30.367,0,0,0-1.941-9.39A22.477,22.477,0,0,0,128.051,7a22.047,22.047,0,0,0-7.938-5.138A30.732,30.732,0,0,0,108.91,0,30.338,30.338,0,0,0,97.619,1.905,22.844,22.844,0,0,0,89.68,7.043a21.363,21.363,0,0,0-4.807,7.618,31.4,31.4,0,0,0-1.9,9.346Q82.887,25.691,82.844,27.728Zm40.268,4.208q0,4.119-.177,7.485-.352,6.38-4.1,9.834T108.91,52.71q-6.175,0-9.924-3.455t-4.1-9.834q-.178-3.364-.177-7.485t.177-7.486q.351-6.378,4.1-9.877t9.924-3.5a13.962,13.962,0,0,1,9.924,3.5q3.747,3.5,4.1,9.877Q123.111,27.818,123.112,31.936Z"/><path class="cls-1" d="M148.869.886a2.284,2.284,0,0,0-1.676.709,2.3,2.3,0,0,0-.706,1.683V60.505a2.416,2.416,0,0,0,2.382,2.392h7.145a2.414,2.414,0,0,0,2.381-2.392V40.219H184.77a2.416,2.416,0,0,0,2.382-2.392v-6.29a2.416,2.416,0,0,0-2.382-2.392H158.4V11.959h28.139a2.414,2.414,0,0,0,2.382-2.392V3.278A2.308,2.308,0,0,0,188.21,1.6a2.289,2.289,0,0,0-1.676-.709Z"/><path class="cls-1" d="M239.811.886a2.284,2.284,0,0,0-1.676.709,2.3,2.3,0,0,0-.706,1.683V39.156a16.92,16.92,0,0,1-1.014,6.2,11.3,11.3,0,0,1-2.779,4.208,10.67,10.67,0,0,1-4.278,2.392,18.824,18.824,0,0,1-5.425.753,18.367,18.367,0,0,1-5.38-.753,10.681,10.681,0,0,1-4.234-2.392,10.86,10.86,0,0,1-2.735-4.208,17.561,17.561,0,0,1-.97-6.2V3.278a2.308,2.308,0,0,0-.706-1.683,2.288,2.288,0,0,0-1.676-.709h-7.145a2.284,2.284,0,0,0-1.676.709,2.3,2.3,0,0,0-.705,1.683V39.6a30.008,30.008,0,0,0,1.543,9.921,19.913,19.913,0,0,0,4.719,7.619,21.276,21.276,0,0,0,7.9,4.917,36.2,36.2,0,0,0,22.1,0,21.222,21.222,0,0,0,7.938-4.917,20.393,20.393,0,0,0,4.764-7.619,29.257,29.257,0,0,0,1.587-9.921V3.278a2.307,2.307,0,0,0-.7-1.683,2.291,2.291,0,0,0-1.676-.709Z"/><path class="cls-1" d="M274.477,51.824V37.118h26.551a2.413,2.413,0,0,0,2.381-2.392V28.437a2.413,2.413,0,0,0-2.381-2.392H274.477V11.959h28.491a2.414,2.414,0,0,0,2.382-2.392V3.278a2.308,2.308,0,0,0-.706-1.683,2.288,2.288,0,0,0-1.676-.709H264.95a2.284,2.284,0,0,0-1.676.709,2.3,2.3,0,0,0-.7,1.683V60.505A2.414,2.414,0,0,0,264.95,62.9h38.724a2.416,2.416,0,0,0,2.382-2.392V54.216a2.414,2.414,0,0,0-2.382-2.392Z"/><path class="cls-1" d="M328.9,51.824V3.278A2.308,2.308,0,0,0,328.2,1.6a2.288,2.288,0,0,0-1.676-.709h-7.145A2.286,2.286,0,0,0,317.7,1.6a2.3,2.3,0,0,0-.7,1.683V60.505a2.414,2.414,0,0,0,2.381,2.392H358.01a2.416,2.416,0,0,0,2.382-2.392V54.216a2.414,2.414,0,0,0-2.382-2.392Z"/><path class="cls-1" d="M380.812,1.373a23.776,23.776,0,0,0-7.366,3.765A17.483,17.483,0,0,0,368.6,10.9a15.59,15.59,0,0,0-1.764,7.353,19.917,19.917,0,0,0,1.058,6.866,13.432,13.432,0,0,0,3.22,5.005,18.169,18.169,0,0,0,5.469,3.588,45.582,45.582,0,0,0,7.718,2.524q4.849,1.242,8.556,2.038a51.988,51.988,0,0,1,6.219,1.683,9.914,9.914,0,0,1,3.749,2.126,4.332,4.332,0,0,1,1.235,3.189,5.141,5.141,0,0,1-1.147,3.411,9.232,9.232,0,0,1-3,2.3,14.9,14.9,0,0,1-4.322,1.329,32.046,32.046,0,0,1-5.116.4,22.96,22.96,0,0,1-5.6-.576,14.421,14.421,0,0,1-3.749-1.462,8.164,8.164,0,0,1-2.381-2.037,16.784,16.784,0,0,1-1.5-2.3,4.012,4.012,0,0,0-1.323-1.594,4.114,4.114,0,0,0-2.293-.532h-6.175a2.515,2.515,0,0,0-1.72.665,1.963,1.963,0,0,0-.662,1.727,14.356,14.356,0,0,0,2.382,7.087,19.032,19.032,0,0,0,5.6,5.448,27.589,27.589,0,0,0,7.983,3.455,36.6,36.6,0,0,0,9.439,1.2,37.413,37.413,0,0,0,10.673-1.417,25.38,25.38,0,0,0,8.027-3.854,17,17,0,0,0,5.028-5.847,15.857,15.857,0,0,0,1.764-7.4,16.572,16.572,0,0,0-1.191-6.467,13.916,13.916,0,0,0-3.616-5.005,21.28,21.28,0,0,0-6.263-3.721,57,57,0,0,0-9.13-2.7q-4.852-1.064-8.115-1.861a28.714,28.714,0,0,1-5.248-1.727,6.576,6.576,0,0,1-2.823-2.215,5.964,5.964,0,0,1-.838-3.322,5.318,5.318,0,0,1,.882-3.012,7.462,7.462,0,0,1,2.426-2.259,12.5,12.5,0,0,1,3.616-1.417,19.068,19.068,0,0,1,4.367-.488q5.292,0,7.983,1.639a11.522,11.522,0,0,1,4.013,3.854,5.881,5.881,0,0,0,1.367,1.55,3.653,3.653,0,0,0,2.25.576h6.174a2.518,2.518,0,0,0,1.72-.664A1.97,1.97,0,0,0,414.2,16.3a13.629,13.629,0,0,0-1.72-5.448,17.23,17.23,0,0,0-4.543-5.271,25.7,25.7,0,0,0-7.5-3.986A31.107,31.107,0,0,0,390.03,0,30,30,0,0,0,380.812,1.373Z"/></svg>
